<?xml version="1.0"?>
<svg xmlns="http://www.w3.org/2000/svg" id="Capa_1" enable-background="new 0 0 512 512" height="512px" viewBox="0 0 512 512" width="512px"><g><g><path d="m87.161 209.789 168.839 55.967 168.839-55.967-168.839-55.966z" data-original="#000000" class="active-path" data-old_color="#000000" fill="#2D150E"/><path d="m466.078 227.725-187.182 62.047 45.846 72.825 187.183-62.048z" data-original="#000000" class="active-path" data-old_color="#000000" fill="#2D150E"/><path d="m241 333.54-40.875 64.927-145.637-48.276v99.984l186.512 61.825z" data-original="#000000" class="active-path" data-old_color="#000000" fill="#2D150E"/><path d="m311.875 398.467-40.875-64.927v178.46l186.512-61.825v-99.984z" data-original="#000000" class="active-path" data-old_color="#000000" fill="#2D150E"/><path d="m187.258 362.597 45.846-72.825-187.182-62.047-45.847 72.824z" data-original="#000000" class="active-path" data-old_color="#000000" fill="#2D150E"/><path d="m241 0h30v100.174h-30z" data-original="#000000" class="active-path" data-old_color="#000000" fill="#2D150E"/><path d="m122.957 31.63h30v100.174h-30z" transform="matrix(.866 -.5 .5 .866 -22.376 79.926)" data-original="#000000" class="active-path" data-old_color="#000000" fill="#2D150E"/><path d="m323.957 66.717h100.174v30h-100.174z" transform="matrix(.5 -.866 .866 .5 116.252 364.788)" data-original="#000000" class="active-path" data-old_color="#000000" fill="#2D150E"/></g></g> </svg>
